<?xml version="1.0" encoding="UTF-8" standalone="no"?>
<!-- Created with Inkscape (http://www.inkscape.org/) -->

<svg
   width="66.145836mm"
   height="60.985786mm"
   viewBox="0 0 66.145836 60.985787"
   version="1.1"
   id="svg1"
   xml:space="preserve"
   inkscape:version="1.3 (0e150ed6c4, 2023-07-21)"
   sodipodi:docname="crstatslogo_.svg"
   xmlns:inkscape="http://www.inkscape.org/namespaces/inkscape"
   xmlns:sodipodi="http://sodipodi.sourceforge.net/DTD/sodipodi-0.dtd"
   xmlns="http://www.w3.org/2000/svg"
   xmlns:svg="http://www.w3.org/2000/svg"><sodipodi:namedview
     id="namedview1"
     pagecolor="#ffffff"
     bordercolor="#000000"
     borderopacity="0.25"
     inkscape:showpageshadow="2"
     inkscape:pageopacity="0.0"
     inkscape:pagecheckerboard="0"
     inkscape:deskcolor="#d1d1d1"
     inkscape:document-units="mm"
     inkscape:zoom="0.5"
     inkscape:cx="165"
     inkscape:cy="236"
     inkscape:window-width="2560"
     inkscape:window-height="1387"
     inkscape:window-x="-8"
     inkscape:window-y="-8"
     inkscape:window-maximized="1"
     inkscape:current-layer="layer1"
     showgrid="false"
     showguides="true"><sodipodi:guide
       position="119.67874,136.32048"
       orientation="0,-1"
       id="guide2"
       inkscape:locked="false" /></sodipodi:namedview><defs
     id="defs1" /><g
     inkscape:label="Ebene 1"
     inkscape:groupmode="layer"
     id="layer1"
     transform="translate(-74.745681,-77.823311)"><g
       id="g1"
       transform="matrix(0.50066073,0,0,0.50066073,53.83806,54.086535)"><path
         style="fill:#000000"
         d="m 49.965216,168.7904 c -3.0741,-1.09731 -5.76415,-3.44934 -7.12406,-6.22888 -2.66873,-5.45471 -0.2042,-12.48044 5.27788,-15.04582 l 1.71735,-0.80364 V 98.569696 c 0,-53.352041 -0.15398,-48.95379 1.76506,-50.417514 0.82132,-0.62645 1.22417,-0.741281 2.60056,-0.741281 2.68588,0 3.04795,0.414485 6.44373,7.376739 1.58231,3.244163 3.98223,7.733585 5.33314,9.976494 8.37948,13.912342 20.52152,29.321622 33.6471,42.701066 4.497534,4.58451 4.693914,4.74818 5.086484,4.23945 0.45682,-0.59199 3.9017,-5.7246 9.94458,-14.816674 4.32689,-6.51019 8.10046,-11.72986 10.80369,-14.94386 2.44189,-2.90326 8.0604,-8.5414 10.35871,-10.394896 7.05783,-5.691864 15.55866,-9.715874 24.17018,-11.44135 4.12948,-0.82742 8.90766,-1.139219 10.31917,-0.673378 3.52168,1.162259 4.48646,5.225086 1.78131,7.501321 -1.1119,0.935601 -2.0801,1.174127 -5.57247,1.372835 -3.80545,0.21652 -6.44677,0.712003 -9.9995,1.875791 -7.59319,2.487342 -13.70428,6.55082 -20.60628,13.701837 -4.62093,4.78764 -8.34244,9.7092 -15.83282,20.938334 -3.49483,5.23923 -6.93826,10.34346 -7.65206,11.34273 -1.00275,1.40377 -1.23863,1.9151 -1.03745,2.24896 0.43262,0.71793 8.70833,7.5241 12.66249,10.41396 15.00738,10.96803 28.37194,18.17158 42.46562,22.88914 1.96453,0.65758 4.00338,1.41329 4.53078,1.67935 2.26075,1.14047 3.36201,3.74351 2.57643,6.08985 -0.46757,1.39652 -1.42843,2.51265 -2.68803,3.12241 l -1.15147,0.55742 -52.23541,0.0234 c -28.729484,0.0129 -52.592614,0.0833 -53.029174,0.15646 -0.53857,0.0902 -1.02657,0.4647 -1.51795,1.16476 -0.9616,1.36997 -3.17525,3.05394 -5.1132,3.88971 -2.10501,0.90781 -5.94132,1.09545 -7.92439,0.38759 z m 5.49107,-8.18048 c 2.85534,-1.43827 1.98409,-5.98188 -1.26387,-6.5912 -2.64412,-0.49604 -5.00363,2.3228 -3.98499,4.76074 0.92481,2.21339 3.0307,2.94778 5.24886,1.83046 z m 92.520314,-6.3735 c -0.0111,-0.10914 -1.29104,-0.82208 -2.84428,-1.58431 -6.53363,-3.20629 -15.28913,-8.56323 -23.43631,-14.3392 -3.85758,-2.73485 -12.50012,-9.51693 -15.05637,-11.81522 l -1.2864,-1.15658 -4.23604,4.35614 C 91.794266,139.2845 81.049476,147.6245 71.465896,152.7123 l -2.7073,1.43727 2.64358,0.0873 c 5.66459,0.18699 76.593454,0.1866 76.574424,-4.2e-4 z m -84.679044,-7.25275 c 12.70795,-6.93813 23.01985,-14.81499 32.25711,-24.63995 l 2.98808,-3.17818 -4.85485,-4.92107 c -5.80201,-5.88116 -8.54984,-8.92504 -14.63166,-16.208104 -7.38749,-8.84663 -14.93373,-19.17374 -18.62611,-25.49005 -0.76562,-1.309688 -1.43835,-2.430859 -1.49497,-2.491493 -0.0566,-0.06063 -0.10294,17.271123 -0.10294,38.515017 v 38.62526 l 0.85989,0.42796 c 1.22349,0.60891 1.36503,0.58381 3.60545,-0.63939 z"
         id="path1" /><rect
         style="fill:#ff0000;fill-opacity:1;stroke:#000000;stroke-width:1;stroke-linecap:square;stroke-linejoin:round;stroke-miterlimit:0;stroke-dasharray:none;stroke-opacity:1"
         id="rect1"
         width="22"
         height="22"
         x="120.81451"
         y="56.072239"
         ry="0" /><rect
         style="fill:#ffff00;fill-opacity:1;stroke:#000000;stroke-width:1;stroke-linecap:square;stroke-linejoin:round;stroke-miterlimit:0;stroke-dasharray:none;stroke-opacity:1"
         id="rect1-8"
         width="20"
         height="20"
         x="-18.274546"
         y="147.47205"
         ry="0"
         transform="rotate(-44.528164)"
         inkscape:transform-center-x="-8.2319016"
         inkscape:transform-center-y="6.3610149" /><path
         sodipodi:type="star"
         style="fill:#0000ff;fill-opacity:1;stroke:#000000;stroke-width:3.77953;stroke-linejoin:round;stroke-dasharray:none;stroke-opacity:1"
         id="path2"
         inkscape:flatsided="true"
         sodipodi:sides="3"
         sodipodi:cx="400.22244"
         sodipodi:cy="117.37973"
         sodipodi:r1="63.793346"
         sodipodi:r2="25.96151"
         sodipodi:arg1="0.50331453"
         sodipodi:arg2="1.550512"
         inkscape:rounded="0"
         inkscape:randomized="0"
         d="M 456.10469,148.14928 345.6341,150.3904 398.92853,53.599507 Z"
         transform="matrix(0.26458333,0,0,0.26458333,45.575173,104.49676)"
         inkscape:transform-center-x="-0.076993648"
         inkscape:transform-center-y="-3.3675965" /></g></g></svg>
